<?xml version="1.0" encoding="utf-8"?>
<!-- Generator: Adobe Illustrator 25.1.0, SVG Export Plug-In . SVG Version: 6.00 Build 0)  -->
<svg version="1.1" id="Layer_1" xmlns="http://www.w3.org/2000/svg" xmlns:xlink="http://www.w3.org/1999/xlink" x="0px" y="0px"
	 viewBox="0 0 40 66" style="enable-background:new 0 0 40 66;" xml:space="preserve">
<style type="text/css">
	.st0{fill:url(#SVGID_1_);}
	.st1{fill:url(#SVGID_2_);}
</style>
<g>
	
		<linearGradient id="SVGID_1_" gradientUnits="userSpaceOnUse" x1="30.1057" y1="31.5447" x2="12.224" y2="8.5328" gradientTransform="matrix(1 0 0 -1 0 68)">
		<stop  offset="0" style="stop-color:#3FA7DE"/>
		<stop  offset="0.9946" style="stop-color:#2575B9"/>
	</linearGradient>
	<path class="st0" d="M39.22,32.46c-1.04,1.34-2.38,2.49-4.02,3.46c-0.99,0.58-2.07,1.07-3.19,1.49c0,0.13,0.01,0.26,0.01,0.39
		c0,6.4-5.19,11.59-11.59,11.59c-4.44,0-8.29-2.5-10.24-6.16c-2.74,1.37-4.67,3.25-5.65,6.1c0.61,0.85,1.3,1.67,2.06,2.43
		L20.43,65.6l13.84-13.84C39.5,46.54,41.15,39.09,39.22,32.46z"/>
	
		<linearGradient id="SVGID_2_" gradientUnits="userSpaceOnUse" x1="26.0672" y1="51.7636" x2="-7.6441" y2="27.8725" gradientTransform="matrix(1 0 0 -1 0 68)">
		<stop  offset="0" style="stop-color:#F7B334"/>
		<stop  offset="0.9946" style="stop-color:#E6392E"/>
	</linearGradient>
	<path class="st1" d="M31.57,7.43c-5.64,2.93,0.22,8.57-6.23,12.46c3.52-8.36-6.52-11.07-3.08-19.49
		C9.81,8.45,20.66,14.65,11.4,21.94c2.26-5.24,0.27-10.55-6.03-11.87c2.86,7.8-10.22,23.01-3.35,34.49c1.17-1.75,2.73-3.23,4.7-4.45
		c0.69-0.43,1.42-0.81,2.17-1.16c-0.04-0.38-0.06-0.76-0.06-1.15c0-6.4,5.19-11.59,11.59-11.59c4.72,0,8.77,2.82,10.58,6.86
		c2.97-1.21,5.02-2.89,5.95-5.63C39.34,19.74,31.28,14.65,31.57,7.43z M8.56,22.6c1.01-2.63,1.21-5.71,0.69-8.67
		C11.23,16.57,11.01,20.33,8.56,22.6z M23.18,17c-0.95-3.82-5.06-5.4-2.99-10.05C20.14,10.54,24.68,12.92,23.18,17z M34.44,20.3
		c-1.25-3.46-4.74-4.73-3.42-8.85C31.26,14.8,34.62,16.75,34.44,20.3z"/>
</g>
</svg>
